<svg width="1200" height="630" viewBox="0 0 1200 630" xmlns="http://www.w3.org/2000/svg">
  <defs>
    <linearGradient id="bgGradient" x1="0%" y1="0%" x2="100%" y2="100%">
      <stop offset="0%" style="stop-color:#667eea;stop-opacity:1" />
      <stop offset="100%" style="stop-color:#764ba2;stop-opacity:1" />
    </linearGradient>
    <linearGradient id="textGradient" x1="0%" y1="0%" x2="100%" y2="0%">
      <stop offset="0%" style="stop-color:#ffffff;stop-opacity:1" />
      <stop offset="100%" style="stop-color:#f0f0f0;stop-opacity:1" />
    </linearGradient>
    <linearGradient id="instaGradient" x1="0%" y1="0%" x2="100%" y2="100%">
      <stop offset="0%" style="stop-color:#f09433;stop-opacity:1" />
      <stop offset="25%" style="stop-color:#e6683c;stop-opacity:1" />
      <stop offset="50%" style="stop-color:#dc2743;stop-opacity:1" />
      <stop offset="75%" style="stop-color:#cc2366;stop-opacity:1" />
      <stop offset="100%" style="stop-color:#bc1888;stop-opacity:1" />
    </linearGradient>
  </defs>
  
  <rect width="1200" height="630" fill="url(#bgGradient)"/>
  
  <circle cx="100" cy="100" r="50" fill="rgba(255,255,255,0.1)"/>
  <circle cx="1100" cy="530" r="80" fill="rgba(255,255,255,0.1)"/>
  <circle cx="200" cy="500" r="30" fill="rgba(255,255,255,0.1)"/>
  
  <g transform="translate(100, 200)">
    <rect x="0" y="0" width="120" height="120" rx="20" fill="rgba(255,255,255,0.9)"/>
    <circle cx="35" cy="45" r="8" fill="#667eea"/>
    <circle cx="85" cy="45" r="8" fill="#667eea"/>
    <rect x="45" y="75" width="30" height="3" rx="1.5" fill="#667eea"/>
    <line x1="60" y1="0" x2="60" y2="-20" stroke="rgba(255,255,255,0.8)" stroke-width="3"/>
    <circle cx="60" cy="-25" r="5" fill="#667eea"/>
  </g>
  
  <g transform="translate(250, 200)">
    <rect x="0" y="0" width="120" height="120" rx="20" fill="rgba(255,255,255,0.9)"/>
    <rect x="30" y="30" width="60" height="60" rx="8" fill="url(#instaGradient)"/>
    <circle cx="60" cy="60" r="15" fill="white"/>
    <circle cx="60" cy="60" r="8" fill="url(#instaGradient)"/>
    <circle cx="75" cy="45" r="5" fill="white"/>
  </g>
  
  <text x="600" y="150" text-anchor="middle" font-family="Arial, sans-serif" font-size="72" font-weight="bold" fill="url(#textGradient)">
    Медиабот
  </text>
  
  <text x="600" y="220" text-anchor="middle" font-family="Arial, sans-serif" font-size="32" fill="rgba(255,255,255,0.9)">
    ИИ-помощник для Instagram маркетинга
  </text>
  
  <text x="600" y="280" text-anchor="middle" font-family="Arial, sans-serif" font-size="24" fill="rgba(255,255,255,0.8)">
    Генерация контента • Аналитика • Автоматизация
  </text>
  
  <rect x="450" y="350" width="300" height="60" rx="30" fill="rgba(255,255,255,0.2)" stroke="rgba(255,255,255,0.5)" stroke-width="2"/>
  <text x="600" y="390" text-anchor="middle" font-family="Arial, sans-serif" font-size="20" font-weight="bold" fill="white">
    Попробовать бесплатно
  </text>
  
  <text x="600" y="580" text-anchor="middle" font-family="Arial, sans-serif" font-size="18" fill="rgba(255,255,255,0.7)">
    mediabotpro.vercel.app
  </text>
</svg> 